HIERARCHY
ROOT RootJoint
{
    OFFSET   0.000000   0.000000   0.000000
    CHANNELS 6 Xposition Yposition Zposition Xrotation Yrotation Zrotation
    JOINT pelvis_lowerback
    {
        OFFSET   0.000000   0.093605   0.000000
        CHANNELS 3 Xrotation Yrotation Zrotation
        JOINT lowerback_torso
        {
            OFFSET   0.000000   0.100000   0.000000
            CHANNELS 3 Xrotation Yrotation Zrotation
            JOINT torso_head
            {
                OFFSET   0.000000   0.282350   0.000000
                CHANNELS 3 Xrotation Yrotation Zrotation
                End Site
                {
                    OFFSET   0.000000   0.192650   0.000000
                }
            }
            JOINT rTorso_Clavicle
            {
                OFFSET  -0.001000   0.157500   0.000000
                CHANNELS 3 Xrotation Yrotation Zrotation
                JOINT rShoulder
                {
                    OFFSET  -0.117647   0.000000   0.000000
                    CHANNELS 3 Xrotation Yrotation Zrotation
                    JOINT rElbow
                    {
                        OFFSET  -0.245000   0.000000   0.000000
                        CHANNELS 3 Xrotation Yrotation Zrotation
                        JOINT rWrist
                        {
                            OFFSET  -0.240000   0.000000   0.000000
                            CHANNELS 3 Xrotation Yrotation Zrotation
                            End Site
                            {
                                OFFSET  -0.116353  -0.002500   0.000000
                            }
                        }
                    }
                }
            }
            JOINT lTorso_Clavicle
            {
                OFFSET   0.001000   0.157500   0.000000
                CHANNELS 3 Xrotation Yrotation Zrotation
                JOINT lShoulder
                {
                    OFFSET   0.117647   0.000000   0.000000
                    CHANNELS 3 Xrotation Yrotation Zrotation
                    JOINT lElbow
                    {
                        OFFSET   0.245000   0.000000   0.000000
                        CHANNELS 3 Xrotation Yrotation Zrotation
                        JOINT lWrist
                        {
                            OFFSET   0.240000   0.000000   0.000000
                            CHANNELS 3 Xrotation Yrotation Zrotation
                            End Site
                            {
                                OFFSET   0.116353  -0.002500   0.000000
                            }
                        }
                    }
                }
            }
        }
    }
    JOINT rHip
    {
        OFFSET  -0.100000  -0.051395   0.000000
        CHANNELS 3 Xrotation Yrotation Zrotation
        JOINT rKnee
        {
            OFFSET   0.000000  -0.410000   0.000000
            CHANNELS 3 Xrotation Yrotation Zrotation
            JOINT rAnkle
            {
                OFFSET   0.000000  -0.390000   0.000000
                CHANNELS 3 Xrotation Yrotation Zrotation
                JOINT rToeJoint
                {
                    OFFSET   0.000000  -0.050000   0.130000
                    CHANNELS 3 Xrotation Yrotation Zrotation
                    End Site
                    {
                        OFFSET  -0.010000   0.002000   0.060000
                    }
                }
            }
        }
    }
    JOINT lHip
    {
        OFFSET   0.100000  -0.051395   0.000000
        CHANNELS 3 Xrotation Yrotation Zrotation
        JOINT lKnee
        {
            OFFSET   0.000000  -0.410000   0.000000
            CHANNELS 3 Xrotation Yrotation Zrotation
            JOINT lAnkle
            {
                OFFSET   0.000000  -0.390000   0.000000
                CHANNELS 3 Xrotation Yrotation Zrotation
                JOINT lToeJoint
                {
                    OFFSET   0.000000  -0.050000   0.130000
                    CHANNELS 3 Xrotation Yrotation Zrotation
                    End Site
                    {
                        OFFSET   0.010000   0.002000   0.060000
                    }
                }
            }
        }
    }
}
MOTION
Frames: 15
Frame Time:   0.008333
 -2.376719   0.925631   3.975860   0.000000   0.000000   0.000000   0.000000   0.000000   0.000000   0.000000   0.000000   0.000000   0.000000   0.000000   0.000000   0.000000   0.000000   0.000000   0.000000   0.000000   0.000000   0.000000   0.000000   0.000000   0.000000   0.000000   0.000000   0.000000   0.000000   0.000000   0.000000   0.000000   0.000000   0.000000   0.000000   0.000000   0.000000   0.000000   0.000000   0.000000   0.000000   0.000000   0.000000   0.000000   0.000000   0.000000   0.000000   0.000000   0.000000   0.000000   0.000000   0.000000   0.000000   0.000000   0.000000   0.000000   0.000000   0.000000   0.000000   0.000000   0.000000   0.000000   0.000000
 -2.376044   0.925856   3.975940  -0.791355   0.857221  -0.044432   0.823560  -0.040846   0.121791   0.281505  -0.156656   0.210191   0.047018   0.881827  -0.358512   0.339869  -0.804980  -0.369746   0.635946   0.037899   2.331204   0.017717   0.906421  -0.010357   0.274141  -0.472666  -2.604474  -0.108778  -0.347764   0.140471   0.647636  -0.277349  -2.485629   0.022211  -1.220342   0.009350   0.268012   0.637214   2.159076   1.029812   0.309937  -0.077740   0.564298   0.000694   0.005741  -0.227976  -0.201136   0.125270   0.410647   0.000043   0.003458   0.152355  -0.933875  -0.026261   1.211174   0.000758  -0.000824   0.649421  -1.116763  -0.484194   0.714266   0.003495  -0.007435
 -2.375066   0.926713   3.975898  -1.606152   2.198792   0.007803   1.614304  -0.173490   0.246487   0.655557  -0.454589   0.455119   0.145881   1.754594  -0.697851   0.676749  -1.639423  -0.103283   1.259634   0.067422   5.147448   0.040106   1.762664  -0.018415   0.571805  -0.792676  -4.601364  -0.214317  -0.856777  -0.324758   1.264343  -0.751536  -5.446998   0.051312  -2.449157   0.017199   0.568660   0.750799   3.636345   2.253442   0.628710  -0.278576   1.284342   0.002075   0.015005  -0.430876  -0.385004   0.241794   0.810916   0.000460   0.007910   0.221984  -1.695921  -0.040145   2.473467   0.000471   0.005709   0.940853  -2.010628  -0.809169  -1.701067  -0.004089   0.000566
 -2.373792   0.927807   3.975590  -2.374966   3.509336   0.086144   2.379209  -0.236996   0.447003   1.029340  -0.722971   0.734936   0.247418   2.577323  -1.013677   1.005256  -2.374391   0.562720   1.865612   0.161806   8.272683   0.062283   2.570001  -0.024603   0.854184  -1.036366  -5.899125  -0.328544  -1.400995  -1.174782   1.838034  -1.311609  -8.704807   0.079571  -3.622336   0.022855   0.871879   0.641079   4.431537   3.429946   0.880384  -0.554559   1.881369   0.003555   0.020099  -0.712993  -0.626145   0.339273  -0.157981  -0.001743  -0.004790   0.220953  -2.475475  -0.066546   3.626804   0.000405   0.009915   1.284711  -2.948592  -1.167010  -3.248602  -0.008740   0.005426
 -2.372395   0.928832   3.975099  -3.106603   4.817706   0.191588   3.120904  -0.282040   0.689803   1.397250  -0.966103   1.037581   0.345924   3.345968  -1.300852   1.324650  -3.006965   1.491094   2.448150   0.330051  11.596875   0.081933   3.335180  -0.029394   1.127483  -1.198089  -6.649333  -0.450731  -1.953447  -2.295060   2.337715  -1.904273 -11.985463   0.102808  -4.732363   0.026185   1.171184   0.422329   4.657965   4.562700   1.164156  -0.825572   2.445764   0.004796   0.023863  -0.969703  -0.789670   0.451637  -0.915175  -0.002777  -0.013280   0.152880  -3.244250  -0.125709   4.690019   0.000604   0.012942   1.640168  -3.867093  -1.520314  -4.295574  -0.011062   0.007250
 -2.370916   0.929571   3.974483  -3.806184   6.109529   0.326471   3.836133  -0.304537   0.965107   1.755261  -1.178195   1.369191   0.442334   4.063020  -1.570865   1.632554  -3.548489   2.625896   2.975267   0.554448  14.893623   0.097517   4.061202  -0.032902   1.396606  -1.276617  -6.934930  -0.580621  -2.493089  -3.565955   2.768487  -2.507586 -15.207742   0.119686  -5.776861   0.027538   1.460897   0.150010   4.507233   5.646393   1.439777  -1.078146   2.967371   0.005678   0.026165  -1.217301  -0.928190   0.562783  -1.707477  -0.003414  -0.020550   0.033787  -3.978281  -0.227416   5.667860   0.001000   0.015102   1.980495  -4.745061  -1.856884  -5.134296  -0.012240   0.007621
 -2.369384   0.929899   3.973776  -4.480991   7.370626   0.493596   4.524043  -0.299068   1.267852   2.101301  -1.353690   1.724491   0.537005   4.731847  -1.824152   1.925525  -4.011765   3.871789   3.447105   0.822418  18.100211   0.108754   4.749087  -0.035390   1.661657  -1.285468  -6.914933  -0.716338  -3.005079  -4.903474   3.137209  -3.104692 -18.321748   0.130199  -6.755815   0.027276   1.737517  -0.143163   4.119835   6.668219   1.691822  -1.316066   3.432337   0.006184   0.027018  -1.465378  -1.059276   0.668254  -2.645463  -0.003851  -0.027857  -0.117919  -4.671570  -0.374270   6.568976   0.001487   0.016512   2.287878  -5.578186  -2.173595  -5.973563  -0.013211   0.007487
 -2.367922   0.929282   3.972583  -4.871665   8.391840   0.722566   4.965282  -0.093972   1.484544   2.393688  -1.492454   2.076193   0.620300   5.225719  -2.067523   2.222786  -4.303027   4.721138   4.038383   1.235357  21.087661   0.103898   5.177300  -0.034972   1.835228  -1.176391  -6.041315  -0.716369  -3.420609  -5.557736   3.552628  -3.846588 -21.713064   0.131843  -7.613794   0.027641   1.941321  -0.517739   3.303624   7.224786   1.885724  -1.598112   4.069612   0.006916   0.028335  -2.238196  -1.152980   0.620365  -2.969545  -0.003667  -0.025556  -0.648867  -5.202033  -0.611572   7.557932   0.001797   0.017370   2.497507  -6.578689  -2.191061  -7.206961  -0.012479   0.010997
 -2.366480   0.928516   3.971129  -5.214998   9.276264   1.075452   5.402146   0.171467   1.626230   2.666277  -1.553019   2.366887   0.694283   5.680762  -2.296478   2.485526  -4.510028   5.422070   4.556406   1.685534  23.798650   0.097695   5.586389  -0.034455   2.005910  -1.052238  -5.218336  -0.720754  -3.797316  -6.101625   3.903127  -4.552614 -24.835019   0.128824  -8.412560   0.026848   2.135758  -0.878397   2.489410   7.673443   2.017674  -1.987189   4.613011   0.007108   0.027530  -2.973825  -1.288916   0.558165  -3.459909  -0.003783  -0.024450  -1.133851  -5.696084  -1.010336   8.560561   0.002281   0.017143   2.410597  -7.528889  -2.189095  -7.396086  -0.010291   0.009676
 -2.365163   0.927708   3.969458  -5.517885  10.115310   1.467015   5.827358   0.456806   1.762281   2.927663  -1.566627   2.625855   0.766386   6.104386  -2.509768   2.717201  -4.667796   6.003925   5.009133   2.149674  26.270870   0.090874   5.978074  -0.033839   2.173981  -0.891721  -4.536409  -0.730443  -4.139665  -6.569465   4.196107  -5.220183 -27.718026   0.122849  -9.155897   0.025169   2.316539  -1.211635   1.763617   8.038625   2.108030  -2.398879   5.092776   0.007018   0.025978  -3.665329  -1.449020   0.486581  -3.941736  -0.003811  -0.023072  -1.568769  -6.157866  -1.444814   9.513703   0.002591   0.016639   2.296548  -8.419307  -2.192358  -7.619120  -0.008594   0.008701
 -2.364022   0.926818   3.967594  -5.796691  10.962924   1.856337   6.246346   0.744827   1.917190   3.182110  -1.553364   2.874960   0.837208   6.498944  -2.705734   2.923383  -4.795718   6.484344   5.406171   2.611346  28.530814   0.083725   6.349502  -0.033086   2.337087  -0.709508  -3.977764  -0.744588  -4.452017  -6.969142   4.439660  -5.849303 -30.383762   0.115039  -9.847922   0.022861   2.484888  -1.518072   1.120446   8.350299   2.175992  -2.793160   5.525426   0.006800   0.024296  -4.318373  -1.615146   0.412924  -4.444774  -0.003805  -0.022053  -1.995126  -6.598581  -1.875287  10.354930   0.002748   0.016067   2.208525  -9.267184  -2.213080  -7.768567  -0.007123   0.007521
 -2.363077   0.925863   3.965579  -6.065559  11.838895   2.241261   6.658748   1.030787   2.083451   3.432846  -1.521772   3.119552   0.907387   6.866617  -2.884969   3.108986  -4.905551   6.885597   5.756011   3.060493  30.603634   0.076497   6.699053  -0.032173   2.493691  -0.521457  -3.519267  -0.760993  -4.734630  -7.308564   4.642136  -6.437857 -32.848414   0.106206 -10.491258   0.020105   2.642225  -1.795865   0.553946   8.628103   2.231852  -3.168516   5.916266   0.006521   0.022663  -4.934711  -1.778875   0.340345  -4.968978  -0.003760  -0.021483  -2.419001  -7.012759  -2.300035  11.128100   0.002852   0.015719   2.133803 -10.067858  -2.242961  -7.859826  -0.005848   0.006285
 -2.362340   0.924868   3.963447  -6.333400  12.755174   2.622994   7.062036   1.311464   2.255705   3.680100  -1.477118   3.360231   0.976757   7.209321  -3.049316   3.278165  -5.004902   7.224567   6.065997   3.490981  32.510572   0.069387   7.026208  -0.031106   2.643038  -0.338333  -3.139105  -0.777178  -4.987552  -7.595241   4.811265  -6.984568 -35.127752   0.096934 -11.088281   0.017063   2.789687  -2.042234   0.056466   8.881852   2.280078  -3.525550   6.271634   0.006221   0.021159  -5.515263  -1.936923   0.269984  -5.496126  -0.003649  -0.021231  -2.839795  -7.398390  -2.719328  11.851106   0.002946   0.015655   2.079349 -10.820560  -2.276566  -7.917547  -0.004769   0.005143
 -2.362052   0.923732   3.961401  -6.523586  13.494339   2.872087   7.332230   1.669283   2.418631   3.906575  -1.439606   3.660845   1.025235   7.288866  -3.120704   3.297322  -4.996398   7.302821   6.294802   3.786956  33.925092   0.062964   7.442965  -0.030543   2.690279  -0.138002  -2.127017  -0.714071  -5.083457  -7.620424   5.029934  -7.494203 -37.186615   0.087018 -11.667907   0.014401   2.931328  -2.291809  -0.680559   8.924662   2.047256  -3.662122   6.633000   0.005456   0.018530  -6.454656  -2.210970   0.069350  -4.682328  -0.001721  -0.014972  -3.086670  -7.619969  -2.979929  12.214993   0.002682   0.014066   1.893802 -11.465306  -2.127893  -7.565258  -0.004025   0.003599
 -2.362089   0.922538   3.959407  -6.681232  14.291552   3.116865   7.540331   1.991281   2.542237   4.084727  -1.396942   3.924918   1.063309   7.348193  -3.172148   3.305134  -4.989120   7.176446   6.502388   4.055654  35.094372   0.055516   7.833665  -0.029507   2.726608   0.072063  -1.329154  -0.647077  -5.138551  -7.501459   5.234613  -7.942118 -39.008409   0.076733 -12.197521   0.011389   3.067983  -2.482973  -1.286873   9.008361   1.817636  -3.710705   7.142950   0.004701   0.017418  -7.262416  -2.446112  -0.127167  -3.951185  -0.000753  -0.009607  -3.317745  -7.825456  -3.226400  12.474259   0.002378   0.012520   1.691486 -12.057566  -1.985402  -7.106203  -0.003602   0.002696
